<?xml version="1.0" encoding="UTF-8" standalone="no"?>
<!-- Created with Inkscape (http://www.inkscape.org/) -->

<svg
   xmlns:dc="http://purl.org/dc/elements/1.1/"
   xmlns:cc="http://creativecommons.org/ns#"
   xmlns:rdf="http://www.w3.org/1999/02/22-rdf-syntax-ns#"
   xmlns:svg="http://www.w3.org/2000/svg"
   xmlns="http://www.w3.org/2000/svg"
   xmlns:sodipodi="http://sodipodi.sourceforge.net/DTD/sodipodi-0.dtd"
   xmlns:inkscape="http://www.inkscape.org/namespaces/inkscape"
   width="200"
   height="200"
   viewBox="0 0 52.916665 52.916668"
   version="1.1"
   id="svg4644"
   inkscape:version="0.92.0 r15299"
   sodipodi:docname="share-buttons.svg">
  <defs
     id="defs4638" />
  <sodipodi:namedview
     id="base"
     pagecolor="#ffffff"
     bordercolor="#666666"
     borderopacity="1.0"
     inkscape:pageopacity="0.0"
     inkscape:pageshadow="2"
     inkscape:zoom="1.4"
     inkscape:cx="-241.16987"
     inkscape:cy="186.07398"
     inkscape:document-units="px"
     inkscape:current-layer="g5403"
     showgrid="false"
     units="px"
     inkscape:window-width="1920"
     inkscape:window-height="1013"
     inkscape:window-x="-9"
     inkscape:window-y="-9"
     inkscape:window-maximized="1" />
  <metadata
     id="metadata4641">
    <rdf:RDF>
      <cc:Work
         rdf:about="">
        <dc:format>image/svg+xml</dc:format>
        <dc:type
           rdf:resource="http://purl.org/dc/dcmitype/StillImage" />
        <dc:title />
      </cc:Work>
    </rdf:RDF>
  </metadata>
  <g
     inkscape:groupmode="layer"
     id="layer2"
     inkscape:label="Layer 2"
     style="display:inline;opacity:1" />
  <g
     inkscape:label="Layer 1"
     inkscape:groupmode="layer"
     id="layer1"
     transform="translate(0,-244.08332)"
     style="display:inline;opacity:1">
    <flowRoot
       xml:space="preserve"
       id="flowRoot5244"
       style="font-style:normal;font-weight:normal;font-size:14.66666698px;line-height:21.35000038px;font-family:sans-serif;letter-spacing:0px;word-spacing:0px;fill:#000000;fill-opacity:1;stroke:none"
       transform="matrix(0.26458333,0,0,0.26458333,0,244.08332)"><flowRegion
         id="flowRegion5246"><rect
           id="rect5248"
           width="61.871838"
           height="15.909895"
           x="39.017143"
           y="102.20461" /></flowRegion><flowPara
         id="flowPara5250">Like</flowPara></flowRoot>    <text
       xml:space="preserve"
       style="font-style:normal;font-weight:normal;font-size:3.88055563px;line-height:5.64885426px;font-family:sans-serif;letter-spacing:0px;word-spacing:0px;fill:#000000;fill-opacity:1;stroke:none;stroke-width:0.26458332"
       x="10.356693"
       y="273.2464"
       id="text5254"><tspan
         sodipodi:role="line"
         id="tspan5252"
         x="10.356693"
         y="277.18582"
         style="stroke-width:0.26458332" /></text>
    <text
       xml:space="preserve"
       style="font-style:normal;font-weight:normal;font-size:3.88055563px;line-height:5.64885426px;font-family:sans-serif;letter-spacing:0px;word-spacing:0px;fill:#000000;fill-opacity:1;stroke:none;stroke-width:0.26458332"
       x="20.980658"
       y="269.67166"
       id="text5328"><tspan
         sodipodi:role="line"
         id="tspan5326"
         x="20.980658"
         y="273.61108"
         style="stroke-width:0.26458332" /></text>
    <g
       id="g5376"
       transform="translate(-0.75595269,0.66145836)">
      <g
         id="g5403"
         transform="translate(-0.06681738,1.7372519)">
        <path
           style="fill:#4267b2;fill-opacity:1;stroke:none;stroke-width:0.26458332px;stroke-linecap:butt;stroke-linejoin:miter;stroke-opacity:1"
           d="m 27.328309,257.57773 v 11.82668 l 4.987081,-2.8793 4.930942,2.84688 v -11.86108 z"
           id="path5202"
           inkscape:connector-curvature="0" />
        <path
           style="fill:#4da7de;fill-opacity:1;stroke:none;stroke-width:0.26458332px;stroke-linecap:butt;stroke-linejoin:miter;stroke-opacity:1"
           d="m 39.255213,257.31046 v 12.22758 l 4.857922,-2.80472 5.045633,2.9131 v -12.46959 z"
           id="path5204"
           inkscape:connector-curvature="0" />
        <path
           style="fill:#4267b2;fill-opacity:1;stroke:none;stroke-width:0.26458332px;stroke-linecap:butt;stroke-linejoin:miter;stroke-opacity:1"
           d="m 5.5515253,274.34504 v 4.4176 c 0,0 0.1889881,0.80319 0.7323288,0.89769 0.5433406,0.0945 22.6077009,0 22.6077009,0 0,0 0.54334,-0.11812 0.637834,-0.66146 0.0945,-0.54334 0,-4.8192 0,-4.8192 0,0 -0.04725,-0.75595 -0.685081,-0.77957 -0.637836,-0.0236 -0.637836,-0.0236 -0.637836,-0.0236 H 6.2602305 c 0,0 -0.7795757,-0.0236 -0.7087052,0.96856 z"
           id="path5206"
           inkscape:connector-curvature="0" />
        <rect
           ry="0.73499119"
           y="273.43015"
           x="32.088459"
           height="6.0302687"
           width="9.6718159"
           id="rect5210"
           style="opacity:1;fill:none;fill-opacity:1;fill-rule:nonzero;stroke:#dedede;stroke-width:0.207;stroke-linecap:round;stroke-linejoin:round;stroke-miterlimit:4;stroke-dasharray:none;stroke-dashoffset:0;stroke-opacity:1" />
        <rect
           ry="0.73499119"
           y="273.43015"
           x="32.088459"
           height="6.0302687"
           width="9.6718159"
           id="rect5212"
           style="opacity:1;fill:none;fill-opacity:1;fill-rule:nonzero;stroke:#dedede;stroke-width:0.207;stroke-linecap:round;stroke-linejoin:round;stroke-miterlimit:4;stroke-dasharray:none;stroke-dashoffset:0;stroke-opacity:1" />
        <rect
           ry="0.73499119"
           y="273.43015"
           x="32.088459"
           height="6.0302687"
           width="9.6718159"
           id="rect5214"
           style="opacity:1;fill:none;fill-opacity:1;fill-rule:nonzero;stroke:#dedede;stroke-width:0.207;stroke-linecap:round;stroke-linejoin:round;stroke-miterlimit:4;stroke-dasharray:none;stroke-dashoffset:0;stroke-opacity:1" />
        <rect
           style="opacity:1;fill:#cb2027;fill-opacity:1;fill-rule:nonzero;stroke:#b50006;stroke-width:0.26721638;stroke-linecap:round;stroke-linejoin:round;stroke-miterlimit:4;stroke-dasharray:none;stroke-dashoffset:0;stroke-opacity:1"
           id="rect5208"
           width="16.293238"
           height="5.9699526"
           x="32.118618"
           y="273.46033"
           ry="0.72763962" />
        <text
           xml:space="preserve"
           style="font-style:normal;font-weight:normal;font-size:3.88055563px;line-height:5.64885426px;font-family:sans-serif;letter-spacing:0px;word-spacing:0px;fill:#fff6f6;fill-opacity:1;stroke:none;stroke-width:0.26458332;stroke-opacity:1"
           x="12.294398"
           y="277.75656"
           id="text5258"><tspan
             sodipodi:role="line"
             id="tspan5256"
             x="12.294398"
             y="277.75656"
             style="font-style:normal;font-variant:normal;font-weight:normal;font-stretch:normal;font-family:helvetica;-inkscape-font-specification:helvetica;fill:#fff6f6;fill-opacity:1;stroke:none;stroke-width:0.26458332;stroke-opacity:1">Like</tspan></text>
        <text
           xml:space="preserve"
           style="font-style:normal;font-weight:normal;font-size:3.88055563px;line-height:5.64885426px;font-family:sans-serif;letter-spacing:0px;word-spacing:0px;fill:#fff6f6;fill-opacity:1;stroke:none;stroke-width:0.26458332;stroke-opacity:1"
           x="20.236574"
           y="277.72571"
           id="text5262"><tspan
             sodipodi:role="line"
             id="tspan5260"
             x="20.236574"
             y="277.72571"
             style="font-size:3.17499995px;letter-spacing:-0.10847915px;fill:#fff6f6;fill-opacity:1;stroke:none;stroke-width:0.26458332;stroke-opacity:1">5.3M</tspan></text>
        <path
           id="path5280"
           d="m 33.404769,262.43039 h -0.762345 v -0.49999 c 0,-0.18777 0.124447,-0.23155 0.2121,-0.23155 0.08745,0 0.537981,0 0.537981,0 v -0.82547 l -0.740908,-0.003 c -0.822479,0 -1.00965,0.61567 -1.00965,1.00966 v 0.55023 H 31.16629 v 0.85061 h 0.475657 c 0,1.09162 0,2.4069 0,2.4069 h 1.000477 c 0,0 0,-1.32825 0,-2.4069 h 0.675093 z"
           inkscape:connector-curvature="0"
           style="fill:#ffffff;fill-opacity:1;stroke-width:0.09971847" />
        <path
           id="path5290"
           d="m 47.116581,261.19911 c -0.19071,0.0848 -0.395953,0.14195 -0.611304,0.16754 0.21988,-0.13163 0.388475,-0.34014 0.467981,-0.58887 -0.205663,0.12205 -0.433335,0.21061 -0.675856,0.25842 -0.19408,-0.20682 -0.47072,-0.33614 -0.776845,-0.33614 -0.587715,0 -1.064226,0.47651 -1.064226,1.06433 0,0.0833 0.0094,0.16449 0.02759,0.24253 -0.884573,-0.0445 -1.668895,-0.46809 -2.193847,-1.11204 -0.09162,0.15711 -0.144059,0.33993 -0.144059,0.53516 0,0.36921 0.187866,0.69503 0.473457,0.88584 -0.174388,-0.006 -0.33856,-0.0535 -0.482093,-0.13321 -1.05e-4,0.004 -1.05e-4,0.009 -1.05e-4,0.0135 0,0.51558 0.366888,0.94565 0.853825,1.04359 -0.0893,0.0243 -0.183339,0.0373 -0.280431,0.0373 -0.06866,0 -0.135319,-0.007 -0.200293,-0.0192 0.135529,0.42281 0.528533,0.73062 0.994197,0.73916 -0.364254,0.28548 -0.823074,0.45565 -1.321806,0.45565 -0.08582,0 -0.170596,-0.005 -0.253893,-0.015 0.471141,0.30213 1.030528,0.4782 1.631512,0.4782 1.957751,0 3.02819,-1.62172 3.02819,-3.02819 0,-0.0461 -9.37e-4,-0.0921 -0.003,-0.13785 0.207874,-0.14975 0.388369,-0.33729 0.530955,-0.55075 z"
           inkscape:connector-curvature="0"
           style="fill:#ffffff;fill-opacity:1;stroke-width:0.10530637" />
        <rect
           style="opacity:1;fill:#fe5722;fill-opacity:1;fill-rule:nonzero;stroke:none;stroke-width:0.19741666;stroke-linecap:round;stroke-linejoin:round;stroke-miterlimit:4;stroke-dasharray:none;stroke-dashoffset:0;stroke-opacity:1"
           id="rect5300"
           width="10.926967"
           height="4.8664436"
           x="28.088354"
           y="255.49347"
           ry="2.4332218" />
        <text
           xml:space="preserve"
           style="font-style:normal;font-weight:normal;font-size:2.82222223px;line-height:5.64885426px;font-family:sans-serif;letter-spacing:0px;word-spacing:0px;fill:#ffffff;fill-opacity:1;stroke:none;stroke-width:0.26458332"
           x="29.364025"
           y="259.06064"
           id="text5304"><tspan
             sodipodi:role="line"
             id="tspan5302"
             x="29.364025"
             y="259.06064"
             style="font-style:normal;font-variant:normal;font-weight:normal;font-stretch:normal;font-size:2.82222223px;font-family:arial;-inkscape-font-specification:arial;fill:#ffffff;fill-opacity:1;stroke-width:0.26458332">5.32 M</tspan></text>
        <text
           xml:space="preserve"
           style="font-style:normal;font-weight:normal;font-size:3.88055563px;line-height:5.64885426px;font-family:sans-serif;letter-spacing:0px;word-spacing:0px;fill:#000000;fill-opacity:1;stroke:none;stroke-width:0.26458332"
           x="5.3453903"
           y="262.72266"
           id="text5332"><tspan
             sodipodi:role="line"
             id="tspan5330"
             x="5.3453903"
             y="262.72266"
             style="font-style:normal;font-variant:normal;font-weight:bold;font-stretch:normal;font-size:5.99722242px;font-family:Arial;-inkscape-font-specification:'Arial Bold';stroke-width:0.26458332">5.34m</tspan></text>
        <text
           xml:space="preserve"
           style="font-style:normal;font-weight:normal;font-size:3.88055563px;line-height:5.64885426px;font-family:sans-serif;letter-spacing:0px;word-spacing:0px;fill:#b8b8b8;fill-opacity:1;stroke:none;stroke-width:0.26458332"
           x="8.2640352"
           y="266.88254"
           id="text5336"><tspan
             sodipodi:role="line"
             id="tspan5334"
             x="8.2640352"
             y="266.88254"
             style="font-size:2.82222223px;letter-spacing:-0.19050001px;fill:#b8b8b8;fill-opacity:1;stroke-width:0.26458332">SHARES</tspan></text>
        <g
           style="color:#ffffff"
           id="g5349"
           transform="matrix(0.26458333,0,0,0.26458333,7.172098,274.39702)">
          <path
             id="path5338"
             d="M 4.55,7 C 4.7984,7 5,7.2340364 5,7.5224727 V 13.477527 C 5,13.765964 4.7984,14 4.55,14 H 2.45 C 2.2016,14 2,13.765964 2,13.477527 V 7.5224727 C 2,7.2340364 2.2016,7 2.45,7 Z m 1.9947023,6.2 C 6.2401688,13.164109 6.0173461,12.898279 6,12.573798 c 0.017346,0 0.013442,-2.9057413 0,-4.4298111 C 6.0134419,7.6190393 6.1084946,6.6862335 6.3980131,6.2738428 7.1055629,5.2660075 7.602817,4.6079584 7.8920681,4.2257008 8.1812634,3.8435016 8.5281305,3.4708734 8.5377796,3.1857268 c 0.012996,-0.3836583 -0.00123,-0.3910116 0,-0.8301701 C 8.5390067,1.9163981 8.7456544,1.5 9.2713931,1.5 9.52545,1.5 9.7301456,1.556901 9.9192241,1.8008455 10.222363,2.1559657 10.43431,2.7188473 10.43431,3.6097117 c 0,0.8908644 -0.9244102,2.5632186 -0.9261504,2.5702883 0,0 4.0375504,-9.105e-4 4.0382484,0 C 14.163554,6.175876 14.5,6.725432 14.5,7.2971843 c 0,0.5354524 -0.365886,0.9817892 -0.846057,1.0568984 0.291259,0.1387799 0.500529,0.4695641 0.500529,0.8514715 0,0.476042 -0.325171,0.8727148 -0.756091,0.9402958 0.232081,0.144907 0.375312,0.405835 0.375312,0.701661 0,0.398423 -0.259857,0.733351 -0.614254,0.813713 0.210719,0.137962 0.346923,0.393171 0.346923,0.68176 0,0.452231 -0.33482,0.8227 -0.762896,0.857016 z"
             inkscape:connector-curvature="0"
             style="fill:#ffffff;fill-rule:evenodd" />
        </g>
        <path
           id="path5074"
           d="m 36.829273,276.39492 c 0,0.87696 -0.710534,1.5875 -1.587499,1.5875 -0.163871,0 -0.321341,-0.025 -0.469848,-0.0711 0.06465,-0.10562 0.161309,-0.27845 0.197156,-0.41608 0.01921,-0.0743 0.09858,-0.37767 0.09858,-0.37767 0.05185,0.0986 0.202918,0.18243 0.363588,0.18243 0.478811,0 0.823836,-0.4404 0.823836,-0.9877 0,-0.52426 -0.428241,-0.91665 -0.978745,-0.91665 -0.684929,0 -1.049158,0.4596 -1.049158,0.96082 0,0.233 0.124183,0.52298 0.321981,0.61515 0.03008,0.0141 0.04609,0.008 0.05313,-0.0211 0.0051,-0.0218 0.03201,-0.12994 0.04417,-0.17987 0.0038,-0.016 0.0019,-0.0301 -0.01088,-0.0455 -0.06466,-0.08 -0.117142,-0.22596 -0.117142,-0.36231 0,-0.35015 0.265009,-0.68877 0.716934,-0.68877 0.389834,0 0.663166,0.26565 0.663166,0.64588 0,0.42952 -0.217001,0.72718 -0.499294,0.72718 -0.155549,0 -0.272692,-0.12867 -0.234924,-0.28678 0.04481,-0.18883 0.131224,-0.39239 0.131224,-0.52873 0,-0.12163 -0.0653,-0.22341 -0.200998,-0.22341 -0.15939,0 -0.287415,0.16451 -0.287415,0.38536 0,0.14082 0.04737,0.23556 0.04737,0.23556 0,0 -0.156829,0.66444 -0.185635,0.78863 -0.03201,0.13698 -0.01921,0.3303 -0.0058,0.45576 -0.590191,-0.23108 -1.00883,-0.80591 -1.00883,-1.47867 0,-0.87697 0.710534,-1.5875 1.587499,-1.5875 0.876966,0 1.5875,0.71053 1.5875,1.5875 z"
           inkscape:connector-curvature="0"
           style="display:inline;fill:#ffffff;fill-opacity:1;stroke-width:0.0064012" />
        <text
           xml:space="preserve"
           style="font-style:normal;font-weight:normal;font-size:3.88055563px;line-height:5.64885426px;font-family:sans-serif;letter-spacing:0px;word-spacing:0px;display:inline;opacity:1;fill:#fff6f6;fill-opacity:1;stroke:none;stroke-width:0.26458332;stroke-opacity:1"
           x="37.901569"
           y="277.75656"
           id="text5258-4"><tspan
             sodipodi:role="line"
             id="tspan5256-0"
             x="37.901569"
             y="277.75656"
             style="font-style:normal;font-variant:normal;font-weight:normal;font-stretch:normal;font-family:helvetica;-inkscape-font-specification:helvetica;fill:#fff6f6;fill-opacity:1;stroke:none;stroke-width:0.26458332;stroke-opacity:1">Save</tspan></text>
      </g>
    </g>
  </g>
</svg>
